<?xml version="1.0" encoding="UTF-8"?>
<svg width="57px" height="64px" viewBox="0 0 57 64" version="1.1" xmlns="http://www.w3.org/2000/svg" xmlns:xlink="http://www.w3.org/1999/xlink">
    <!-- Generator: Sketch 56.3 (81716) - https://sketch.com -->
    <title>Group 13</title>
    <desc>Created with Sketch.</desc>
    <defs>
        <filter x="-35.6%" y="-30.2%" width="171.1%" height="160.4%" filterUnits="objectBoundingBox" id="filter-1">
            <feOffset dx="0" dy="2" in="SourceAlpha" result="shadowOffsetOuter1"></feOffset>
            <feGaussianBlur stdDeviation="3" in="shadowOffsetOuter1" result="shadowBlurOuter1"></feGaussianBlur>
            <feColorMatrix values="0 0 0 0 0   0 0 0 0 0   0 0 0 0 0  0 0 0 0.3 0" type="matrix" in="shadowBlurOuter1" result="shadowMatrixOuter1"></feColorMatrix>
            <feMerge>
                <feMergeNode in="shadowMatrixOuter1"></feMergeNode>
                <feMergeNode in="SourceGraphic"></feMergeNode>
            </feMerge>
        </filter>
    </defs>
    <g id="Page-1" stroke="none" stroke-width="1" fill="none" fill-rule="evenodd">
        <g id="Artboard-Copy-16" transform="translate(-276.000000, -54.000000)">
            <g id="Group-13" transform="translate(282.000000, 58.000000)">
                <g id="Group-6-Copy">
                    <g id="Group-4-Copy-2" filter="url(#filter-1)">
                        <g id="Group-3-Copy-2" fill="#A22938" stroke="#FFFFFF" stroke-width="1.5">
                            <rect id="Rectangle" x="0.75" y="0.75" width="43.5" height="43.5" rx="8"></rect>
                        </g>
                        <polygon id="Triangle" fill="#FFFFFF" transform="translate(22.500000, 49.500000) rotate(180.000000) translate(-22.500000, -49.500000) " points="22.5 47 26 52 19 52"></polygon>
                        <polygon id="Triangle" fill="#FFFFFF" transform="translate(22.500000, 49.000000) rotate(180.000000) translate(-22.500000, -49.000000) " points="22.5 45 28 53 17 53"></polygon>
                    </g>
                </g>
                <g id="Group-8" transform="translate(11.000000, 11.000000)" fill="#FFFFFF">
                    <rect id="Rectangle" x="8.72413793" y="0" width="5.55172414" height="23" rx="2.77586207"></rect>
                    <path d="M11.5,-4.79616347e-14 C13.0330663,-4.82432544e-14 14.2758621,1.24279578 14.2758621,2.77586207 L14.2758621,20.2241379 C14.2758621,21.7572042 13.0330663,23 11.5,23 C9.96693371,23 8.72413793,21.7572042 8.72413793,20.2241379 L8.72413793,2.77586207 C8.72413793,1.24279578 9.96693371,-4.7680015e-14 11.5,-4.79616347e-14 Z" id="Rectangle" transform="translate(11.500000, 11.500000) rotate(90.000000) translate(-11.500000, -11.500000) "></path>
                </g>
            </g>
        </g>
    </g>
</svg>