<?xml version="1.0" encoding="UTF-8"?>
<svg width="57px" height="64px" viewBox="0 0 57 64" version="1.1" xmlns="http://www.w3.org/2000/svg" xmlns:xlink="http://www.w3.org/1999/xlink">
    <!-- Generator: Sketch 56.3 (81716) - https://sketch.com -->
    <title>Group 12</title>
    <desc>Created with Sketch.</desc>
    <defs>
        <filter x="-35.6%" y="-30.2%" width="171.1%" height="160.4%" filterUnits="objectBoundingBox" id="filter-1">
            <feOffset dx="0" dy="2" in="SourceAlpha" result="shadowOffsetOuter1"></feOffset>
            <feGaussianBlur stdDeviation="3" in="shadowOffsetOuter1" result="shadowBlurOuter1"></feGaussianBlur>
            <feColorMatrix values="0 0 0 0 0   0 0 0 0 0   0 0 0 0 0  0 0 0 0.3 0" type="matrix" in="shadowBlurOuter1" result="shadowMatrixOuter1"></feColorMatrix>
            <feMerge>
                <feMergeNode in="shadowMatrixOuter1"></feMergeNode>
                <feMergeNode in="SourceGraphic"></feMergeNode>
            </feMerge>
        </filter>
    </defs>
    <g id="Page-1" stroke="none" stroke-width="1" fill="none" fill-rule="evenodd">
        <g id="Artboard-Copy-16" transform="translate(-200.000000, -54.000000)">
            <g id="Group-12" transform="translate(206.000000, 58.000000)">
                <g id="Group-5">
                    <g id="Group-4" filter="url(#filter-1)">
                        <g id="Group-3-Copy-6" fill="#6EA6E8" stroke="#FFFFFF" stroke-width="1.5">
                            <rect id="Rectangle" x="0.75" y="0.75" width="43.5" height="43.5" rx="8"></rect>
                        </g>
                        <polygon id="Triangle" fill="#FFFFFF" transform="translate(22.500000, 49.500000) rotate(180.000000) translate(-22.500000, -49.500000) " points="22.5 47 26 52 19 52"></polygon>
                        <polygon id="Triangle" fill="#FFFFFF" transform="translate(22.500000, 49.000000) rotate(180.000000) translate(-22.500000, -49.000000) " points="22.5 45 28 53 17 53"></polygon>
                    </g>
                </g>
                <g id="Shelter_White" transform="translate(9.000000, 13.000000)" fill="#FFFFFF">
                    <g id="Group-7" transform="translate(10.000000, 6.000000)">
                        <ellipse id="Oval" fill-rule="nonzero" cx="3.5" cy="2.4375" rx="2.625" ry="2.4375"></ellipse>
                        <rect id="Rectangle" x="0" y="5.6875" width="7" height="7.3125" rx="1"></rect>
                    </g>
                    <path d="M26.7999698,8.38467346 L13.7273499,0.0645526614 C13.5852562,-0.0215175538 13.4147438,-0.0215175538 13.2726501,0.0645526614 L0.200030181,8.38467346 C0.00109900855,8.49943375 -0.0557384693,8.75764439 0.0579364864,8.9584749 L0.597892526,9.79048698 C0.711567482,9.99131748 0.967336132,10.0486976 1.1662673,9.93393733 L4.34916606,7.89694224 L4.34916606,18.598339 C4.34916606,18.8278596 4.5196785,19 4.74702841,19 L5.74168427,19 C5.96903418,19 6.13954662,18.8278596 6.13954662,18.598339 L6.13954662,6.74933937 L13.5,2.07285768 L20.8604534,6.74933937 L20.8604534,18.598339 C20.8604534,18.8278596 21.0309658,19 21.2583157,19 L22.2529716,19 C22.4803215,19 22.6508339,18.8278596 22.6508339,18.598339 L22.6508339,7.89694224 L25.8337327,9.93393733 C26.0326639,10.0486976 26.2884325,9.99131748 26.4021075,9.79048698 L26.9420635,8.9584749 C27.0557385,8.75764439 26.998901,8.49943375 26.7999698,8.38467346 Z" id="Path" fill-rule="nonzero"></path>
                </g>
            </g>
        </g>
    </g>
</svg>