<?xml version="1.0" encoding="UTF-8"?>
<svg width="23px" height="23px" viewBox="0 0 23 23" version="1.1" xmlns="http://www.w3.org/2000/svg" xmlns:xlink="http://www.w3.org/1999/xlink">
    <!-- Generator: Sketch 56.3 (81716) - https://sketch.com -->
    <title>Childcare</title>
    <desc>Created with Sketch.</desc>
    <g id="Page-1" stroke="none" stroke-width="1" fill="none" fill-rule="evenodd">
        <g id="Artboard" transform="translate(-412.000000, -30.000000)" fill="#A22938" fill-rule="nonzero">
            <g id="Group-10-Copy-2" transform="translate(400.000000, 19.000000)">
                <g id="Group-6-Copy-4">
                    <g id="Childcare" transform="translate(12.000000, 11.000000)">
                        <circle id="Oval" cx="5.04" cy="4.2" r="4.2"></circle>
                        <circle id="Oval" cx="20.06" cy="6.46" r="2.1"></circle>
                        <path d="M20.8034414,12.8573068 C20.3495335,11.9602572 19.2601544,11.6462899 18.3523385,12.0948147 L12.496926,15.0999308 C11.8614549,14.1580287 6.6869043,7.16104182 1.92087087,9.85219064 C-1.12031237,11.5565849 0.150629881,19.0020966 1.01305498,22.68 L11.4075469,22.68 L11.9522365,19.4057689 L20.0317979,15.2793408 C20.894223,14.7859635 21.2573494,13.7095039 20.8034414,12.8573068 Z" id="Path"></path>
                        <path d="M13.25035,14.28 C12.7116088,14.28 12.2177627,13.9889019 11.9483921,13.4552222 C11.5443362,12.6789607 11.8137068,11.7571501 12.5320284,11.3205031 L17.1562236,8.60358783 C17.8745451,8.16694074 18.727552,8.4580388 19.1316079,9.2343003 C19.5356638,10.0105618 19.2662932,10.9323723 18.5479716,11.3690194 L13.9237764,14.0859346 C13.699301,14.2314837 13.4748255,14.28 13.25035,14.28 Z" id="Path"></path>
                    </g>
                </g>
            </g>
        </g>
    </g>
</svg>