<?xml version="1.0" encoding="UTF-8"?>
<svg width="30px" height="30px" viewBox="0 0 30 30" version="1.1" xmlns="http://www.w3.org/2000/svg" xmlns:xlink="http://www.w3.org/1999/xlink">
    <!-- Generator: Sketch 56.3 (81716) - https://sketch.com -->
    <title>download (11) copy</title>
    <desc>Created with Sketch.</desc>
    <g id="Page-1" stroke="none" stroke-width="1" fill="none" fill-rule="evenodd">
        <g id="Artboard" transform="translate(-135.000000, -160.000000)">
            <g id="Group-6-Copy" transform="translate(127.000000, 152.000000)">
                <g id="download-(11)-copy" transform="translate(7.000000, 7.000000)">
                    <polygon id="Path" points="0 32 0 0 32 0 32 32"></polygon>
                    <g id="Group" transform="translate(1.000000, 1.000000)" fill="#F5A623" fill-rule="nonzero">
                        <path d="M15,0.165 C6.79024125,0.165 0.165,6.79024125 0.165,15 C0.165,23.2097588 6.79024125,29.835 15,29.835 C23.2097588,29.835 29.835,23.2097588 29.835,15 C29.835,6.79024125 23.2097588,0.165 15,0.165 Z M15,1.455 C22.5179213,1.455 28.545,7.48207875 28.545,15 C28.545,22.5179213 22.5179213,28.545 15,28.545 C7.48207875,28.545 1.455,22.5179213 1.455,15 C1.455,7.48207875 7.48207875,1.455 15,1.455 Z M8.42150437,5.32499813 C8.12918625,5.32499813 7.873305,5.52128063 7.79792062,5.80371188 C7.79792062,5.80371188 7.26000187,7.83620063 7.26000187,11.13 C7.26000187,13.1010881 8.12996062,14.1676388 8.91407437,14.7329306 C9.30613125,15.0155756 9.65780062,15.205245 9.84252187,15.3527344 C10.0272431,15.5002238 10.0340062,15.5003644 10.0340062,15.645 C10.0340062,16.8099094 9.19500187,18.0508913 9.19500187,21.45 C9.19500187,23.1664163 9.46633875,24.2568563 9.95967937,24.9811219 C10.45302,25.7053894 11.206905,25.965 11.7750019,25.965 C12.3927131,25.965 13.1162006,25.6339425 13.5966225,24.8979788 C14.0770444,24.1620131 14.3550019,23.0741456 14.3550019,21.45 C14.3550019,18.2375419 13.5159975,16.8099094 13.5159975,15.645 C13.5159975,15.5003644 13.5180619,15.5092444 13.7011819,15.3665906 C13.8842887,15.2239369 14.2367194,15.0402281 14.6308894,14.7606431 C15.4192275,14.2014731 16.2900019,13.1304413 16.2900019,11.1299981 C16.2900019,8.88422625 15.6979125,5.84906063 15.6979125,5.84906063 C15.6398344,5.5449375 15.3738694,5.32499813 15.0642506,5.32499813 L11.6465062,5.32499813 L8.42150437,5.32499813 Z M18.1960256,5.32626 C17.8516669,5.3417775 17.5803581,5.6252925 17.58,5.97 L17.58,21.45 C17.58,23.020395 17.64054,24.01821 17.8974619,24.758145 C18.0259219,25.1281125 18.2254556,25.4540963 18.5260837,25.6727344 C18.8267137,25.8913744 19.1871244,25.965 19.515,25.965 C19.9002075,25.965 20.2842994,25.8145519 20.5580869,25.5656531 C20.8318725,25.3167563 21.0056794,24.9979556 21.13002,24.6498038 C21.3787012,23.9535 21.45,23.0983331 21.45,22.0949981 C21.45,20.0166656 20.805,19.0685569 20.805,18.2249981 C20.805,17.5121625 21.2050444,16.8016988 21.6994331,15.8541188 C22.1938219,14.9065388 22.74,13.7273363 22.74,12.161745 C22.74,10.3358981 22.0456969,7.12445062 18.5084475,5.390505 C18.4113262,5.34327375 18.3039019,5.3211825 18.1960256,5.32625812 L18.1960256,5.32626 Z M8.954385,6.615 L9.84,6.615 L9.84,11.13 C9.83671125,11.3626106 9.95892187,11.5789725 10.1598375,11.6962369 C10.3607531,11.8135013 10.609245,11.8135013 10.8101606,11.6962369 C11.0110762,11.5789725 11.1332887,11.3626088 11.1299981,11.13 L11.1299981,6.615 L11.6465025,6.615 L12.4199981,6.615 L12.4199981,11.13 C12.4167094,11.3626106 12.53892,11.5789725 12.7398356,11.6962369 C12.9407512,11.8135013 13.1892431,11.8135013 13.3901587,11.6962369 C13.5910744,11.5789725 13.7132869,11.3626088 13.7099962,11.13 L13.7099962,6.615 L14.5149862,6.615 C14.6374912,7.30456688 14.9999962,9.41735813 14.9999962,11.13 C14.9999962,12.8060569 14.4835162,13.283025 13.8851025,13.70748 C13.5858975,13.9197075 13.2457087,14.0862131 12.9087844,14.3487 C12.57186,14.6111869 12.2259919,15.0801356 12.2259919,15.645 C12.2259919,17.3180906 13.0649962,18.4704581 13.0649962,21.45 C13.0649962,22.9218544 12.7944525,23.7687338 12.5169994,24.19377 C12.2395462,24.6188044 11.995785,24.675 11.7749962,24.675 C11.5045931,24.675 11.2912294,24.6438563 11.026695,24.2554969 C10.7621606,23.8671394 10.4849962,23.0230819 10.4849962,21.45 C10.4849962,18.2701088 11.3240006,17.3180906 11.3240006,15.645 C11.3240006,15.0801356 10.9828162,14.6126513 10.6475062,14.3449219 C10.3121962,14.0771925 9.96998625,13.9032938 9.66866812,13.6860656 C9.06603187,13.2516075 8.54999625,12.7709119 8.54999625,11.13 C8.54999625,8.549175 8.8338975,7.14874875 8.95438125,6.615 L8.954385,6.615 Z M18.8699981,7.20456937 C20.9854238,8.72027437 21.45,10.8273862 21.45,12.1617469 C21.45,13.4341556 21.0286763,14.3514562 20.5555669,15.2582512 C20.0824575,16.1650462 19.515,17.0673356 19.515,18.2249981 C19.515,19.5744394 20.16,20.3033306 20.16,22.0949981 C20.16,23.026665 20.0700506,23.7839981 19.915605,24.2164425 C19.8383831,24.4326656 19.7501588,24.5573025 19.6913663,24.6107494 C19.6325738,24.6641962 19.6135406,24.6749962 19.5149981,24.6749962 C19.3591238,24.6749962 19.3164094,24.6528787 19.2844613,24.6296456 C19.252515,24.6064125 19.1900138,24.5453925 19.1169113,24.33486 C18.97071,23.9137931 18.8699981,22.9756012 18.8699981,21.4499962 L18.8699981,7.20456937 Z" id="Shape"></path>
                    </g>
                </g>
            </g>
        </g>
    </g>
</svg>